<?xml version="1.0" encoding="utf-8"?>
<!-- Generator: Adobe Illustrator 16.0.0, SVG Export Plug-In . SVG Version: 6.00 Build 0)  -->
<!DOCTYPE svg PUBLIC "-//W3C//DTD SVG 1.1//EN" "http://www.w3.org/Graphics/SVG/1.1/DTD/svg11.dtd">
<?xml-stylesheet type="text/css" href="drenthe.css" ?>
<svg version="1.1" id="Layer_1" xmlns="http://www.w3.org/2000/svg" xmlns:xlink="http://www.w3.org/1999/xlink" x="0px" y="0px"
	 width="595.28px" height="841.89px" viewBox="0 250 595.28 841.89" enable-background="new 0 0 595.28 841.89" xml:space="preserve">
	
<g>
	<g>
		<path fill="#6BCBD7" d="M654.194,114.004c1.935,0,1.935-3,0-3S652.26,114.004,654.194,114.004L654.194,114.004z"/>
	</g>
</g>
<g>
	<g>
		<defs>
			<rect id="SVGID_1_" x="-223.405" y="-91.519" width="1025.442" height="1025.442"/>
		</defs>
		<clipPath id="SVGID_2_">
			<use xlink:href="#SVGID_1_"  overflow="visible"/>
		</clipPath>
		<polygon clip-path="url(#SVGID_2_)" class="active-municipality" id="Noordenveld" stroke="#1D1D1B" stroke-width="3" stroke-miterlimit="10" points="
			205.15,491.472 212.479,491.472 212.479,496.57 199.101,501.961 160.755,517.414 135.772,476.544 136.728,449.782 
			108.055,437.358 108.055,426.839 125.26,431.622 131.954,414.417 141.51,376.135 155.127,362.112 155.127,352.815 
			176.875,342.731 176.875,336.676 191.208,331.734 200.772,337.231 206.503,337.231 220.764,362.112 220.764,372.307 
			223.945,390.787 209.295,395.252 209.295,400.343 201.649,400.343 194.001,404.172 194.001,415.641 209.932,445.802 
			207.386,467.254 202.923,475.539 202.923,481.912 		"/>
		<polygon opacity="0.1" clip-path="url(#SVGID_2_)" class="active-municipality" points="321.446,623.38 321.446,628.473 311.253,632.938 
			311.253,642.495 306.151,650.143 306.151,666.074 301.059,666.074 301.059,673.076 287.672,669.258 251.621,728.05 
			237.331,717.689 241.16,703.032 225.227,701.757 212.479,706.852 212.479,698.64 203.558,698.64 203.558,680.725 183.169,676.904 
			186.614,659.699 194.001,642.495 186.614,639.948 186.614,629.747 177.433,632.938 171.058,627.836 171.058,618.279 
			164.048,606.811 164.048,603.622 144.295,597.891 138.559,613.814 138.559,599.165 132.828,592.153 138.175,587.69 
			141.236,583.009 144.295,575.584 138.175,570.542 151.068,559.697 167.318,528.159 160.755,517.414 199.101,501.961 
			205.468,510.586 202.923,517.414 199.101,525.244 199.101,550.096 206.104,546.912 212.479,554.561 212.479,557.743 
			222.673,563.481 228.41,543.086 237.331,548.184 250.717,571.766 262.596,571.766 266.642,576.858 292.775,580.961 
			297.231,586.414 302.332,609.359 317.62,613.814 		"/>
		<polygon clip-path="url(#SVGID_2_)" class="active-municipality" id="Midden-Drenthe" stroke="#1D1D1B" stroke-width="3" stroke-miterlimit="10" points="
			321.446,623.38 321.446,628.473 311.253,632.938 311.253,642.495 306.151,650.143 306.151,666.074 301.059,666.074 
			301.059,673.076 287.672,669.258 251.621,728.05 237.331,717.689 241.16,703.032 225.227,701.757 212.479,706.852 212.479,698.64 
			203.558,698.64 203.558,680.725 183.169,676.904 186.614,659.699 194.001,642.495 186.614,639.948 186.614,629.747 
			177.433,632.938 171.058,627.836 171.058,618.279 164.048,606.811 164.048,603.622 144.295,597.891 138.559,613.814 
			138.559,599.165 132.828,592.153 138.175,587.69 141.236,583.009 144.295,575.584 138.175,570.542 151.068,559.697 
			167.318,528.159 160.755,517.414 199.101,501.961 205.468,510.586 202.923,517.414 199.101,525.244 199.101,550.096 
			206.104,546.912 212.479,554.561 212.479,557.743 222.673,563.481 228.41,543.086 237.331,548.184 250.717,571.766 
			262.596,571.766 266.642,576.858 292.775,580.961 297.231,586.414 302.332,609.359 317.62,613.814 		"/>
		<polygon opacity="0.1" clip-path="url(#SVGID_2_)" class="active-municipality" points="485.85,572.119 471.024,606.811 468.008,606.811 
			442.518,613.814 436.779,627.838 392.813,653.326 388.992,659.699 384.529,666.074 345.663,631.664 345.663,626.563 
			337.379,621.463 331.396,613.814 328.848,606.811 317.62,556.471 325.268,553.916 320.174,541.174 352.036,534.165 
			376.245,521.265 425.459,506.129 429.206,509.998 469.918,568.298 		"/>
		<polygon clip-path="url(#SVGID_2_)" class="inactive-municipality" stroke="#1D1D1B" stroke-width="3" stroke-miterlimit="10" points="
			485.85,572.119 471.024,606.811 468.008,606.811 442.518,613.814 436.779,627.838 392.813,653.326 388.992,659.699 
			384.529,666.074 345.663,631.664 345.663,626.563 337.379,621.463 331.396,613.814 328.848,606.811 317.62,556.471 
			325.268,553.916 320.174,541.174 352.036,534.165 376.245,521.265 425.459,506.129 429.206,509.998 469.918,568.298 		"/>
		<polygon opacity="0.1" clip-path="url(#SVGID_2_)" class="active-municipality" points="223.945,797.787 213.672,805.334 217.97,830.188 
			198.855,830.188 193.125,823.496 186.433,830.188 176.875,830.188 176.875,818.72 171.138,825.404 150.113,830.188 
			143.42,813.938 119.53,797.689 119.53,785.266 109.01,789.086 92.768,789.086 88.261,786.171 98.417,780.136 92.044,769.94 
			98.417,766.751 98.417,759.745 90.134,764.202 90.134,754.646 72.292,754.646 64.645,757.83 64.645,742.123 72.292,728.05 
			78.022,708.768 85.033,711.952 102.239,704.939 102.239,692.838 107.976,678.814 128.365,675.632 132.828,675.632 
			127.729,686.463 132.828,690.282 144.295,690.282 155.127,695.383 160.755,683.917 164.692,689.009 171.058,687.735 
			171.058,679.451 179.979,686.463 179.979,698.64 160.755,705.896 164.692,711.314 170.372,715.771 163.41,725.338 
			167.238,731.731 160.755,736.166 165.965,745.726 160.755,752.1 165.965,756.555 183.169,751.464 183.169,761.02 199.101,761.02 
			199.101,768.03 207.386,773.761 207.386,780.771 223.945,780.771 		"/>
		<polygon clip-path="url(#SVGID_2_)" class="inactive-municipality" stroke="#1D1D1B" stroke-width="3" stroke-miterlimit="10" points="
			223.945,797.787 213.672,805.334 217.97,830.188 198.855,830.188 193.125,823.496 186.433,830.188 176.875,830.188 
			176.875,818.72 171.138,825.404 150.113,830.188 143.42,813.938 119.53,797.689 119.53,785.266 109.01,789.086 92.768,789.086 
			88.261,786.171 98.417,780.136 92.044,769.94 98.417,766.751 98.417,759.745 90.134,764.202 90.134,754.646 72.292,754.646 
			64.645,757.83 64.645,742.123 72.292,728.05 78.022,708.768 85.033,711.952 102.239,704.939 102.239,692.838 107.976,678.814 
			128.365,675.632 132.828,675.632 127.729,686.463 132.828,690.282 144.295,690.282 155.127,695.383 160.755,683.917 
			164.692,689.009 171.058,687.735 171.058,679.451 179.979,686.463 179.979,698.64 160.755,705.896 164.692,711.314 
			170.372,715.771 163.41,725.338 167.238,731.731 160.755,736.166 165.965,745.726 160.755,752.1 165.965,756.555 183.169,751.464 
			183.169,761.02 199.101,761.02 199.101,768.03 207.386,773.761 207.386,780.771 223.945,780.771 		"/>
		<polygon opacity="0.1" clip-path="url(#SVGID_2_)" class="active-municipality" points="341.895,419.88 328.848,429.661 328.848,437.358 
			305.907,445.802 279.144,429.71 279.144,437.755 291.573,451.692 287.672,454.515 279.144,460.244 274.288,467.891 
			278.752,481.912 269.289,479.05 257.721,475.539 254.537,450.049 244.342,453.242 244.342,459.605 237.969,455.809 
			229.686,455.809 229.686,474.264 219.489,472.355 219.489,466.619 207.386,467.254 209.932,445.802 194.001,415.641 
			194.001,404.172 201.649,400.343 209.295,400.343 209.295,395.252 223.945,390.787 220.764,372.307 220.764,362.112 
			206.503,337.231 219.887,342.731 219.887,348.468 227.529,348.468 232.31,366.629 240.913,366.629 250.47,382.878 
			260.447,389.564 272.45,415.374 297.304,402.472 325.021,402.472 		"/>
		<polygon clip-path="url(#SVGID_2_)" class="active-municipality" id="Tynaarlo" stroke="#1D1D1B" stroke-width="3" stroke-miterlimit="10" points="
			341.895,419.88 328.848,429.661 328.848,437.358 305.907,445.802 279.144,429.71 279.144,437.755 291.573,451.692 
			287.672,454.515 279.144,460.244 274.288,467.891 278.752,481.912 269.289,479.05 257.721,475.539 254.537,450.049 
			244.342,453.242 244.342,459.605 237.969,455.809 229.686,455.809 229.686,474.264 219.489,472.355 219.489,466.619 
			207.386,467.254 209.932,445.802 194.001,415.641 194.001,404.172 201.649,400.343 209.295,400.343 209.295,395.252 
			223.945,390.787 220.764,372.307 220.764,362.112 206.503,337.231 219.887,342.731 219.887,348.468 227.529,348.468 
			232.31,366.629 240.913,366.629 250.47,382.878 260.447,389.564 272.45,415.374 297.304,402.472 325.021,402.472 		"/>
		<polygon clip-path="url(#SVGID_2_)" class="active-municipality" points="425.459,506.129 376.245,521.265 352.036,534.165 320.174,541.174 
			325.268,553.915 317.62,556.471 328.848,606.811 317.62,613.814 302.332,609.359 297.231,586.418 292.775,580.961 
			266.642,576.858 262.596,571.766 250.717,571.766 237.331,548.184 246.251,532.255 254.537,528.428 254.537,522.062 
			260.447,517.414 260.447,508.676 262.596,497.844 266.004,497.844 269.289,488.925 269.289,479.05 278.752,481.912 
			274.288,467.891 279.144,460.244 287.672,454.515 291.573,451.692 279.144,437.755 279.144,429.71 305.907,445.802 
			328.848,437.358 328.848,429.661 341.895,419.88 		"/>
		<polygon clip-path="url(#SVGID_2_)" class="active-municipality" id="Aa en Hunze"  stroke="#1D1D1B" stroke-width="3" stroke-miterlimit="10" points="
			425.459,506.129 376.245,521.265 352.036,534.165 320.174,541.174 325.268,553.915 317.62,556.471 328.848,606.811 
			317.62,613.814 302.332,609.359 297.231,586.418 292.775,580.961 266.642,576.858 262.596,571.766 250.717,571.766 
			237.331,548.184 246.251,532.255 254.537,528.428 254.537,522.062 260.447,517.414 260.447,508.676 262.596,497.844 
			266.004,497.844 269.289,488.925 269.289,479.05 278.752,481.912 274.288,467.891 279.144,460.244 287.672,454.515 
			291.573,451.692 279.144,437.755 279.144,429.71 305.907,445.802 328.848,437.358 328.848,429.661 341.895,419.88 		"/>
		<polygon clip-path="url(#SVGID_2_)" class="active-municipality" points="269.289,479.05 269.289,488.922 266.004,497.844 262.596,497.844 
			260.447,508.676 260.447,517.414 254.537,522.062 254.537,528.428 246.251,532.255 237.331,548.184 228.41,543.086 
			222.673,563.481 212.479,557.743 212.479,554.561 206.104,546.912 199.101,550.096 199.101,525.244 202.923,517.414 
			205.468,510.586 199.101,501.961 212.479,496.57 212.479,491.472 205.15,491.472 202.923,481.912 202.923,475.538 
			207.386,467.254 219.489,466.619 219.489,472.355 229.686,474.264 229.686,455.809 237.969,455.809 244.342,459.605 
			244.342,453.242 254.537,450.049 257.721,475.538 		"/>
		<polygon clip-path="url(#SVGID_2_)" class="active-municipality" id="Assen" stroke="#1D1D1B" stroke-width="3" stroke-miterlimit="10" points="
			269.289,479.05 269.289,488.922 266.004,497.844 262.596,497.844 260.447,508.676 260.447,517.414 254.537,522.062 
			254.537,528.428 246.251,532.255 237.331,548.184 228.41,543.086 222.673,563.481 212.479,557.743 212.479,554.561 
			206.104,546.912 199.101,550.096 199.101,525.244 202.923,517.414 205.468,510.586 199.101,501.961 212.479,496.57 
			212.479,491.472 205.15,491.472 202.923,481.912 202.923,475.538 207.386,467.254 219.489,466.619 219.489,472.355 
			229.686,474.264 229.686,455.809 237.969,455.809 244.342,459.605 244.342,453.242 254.537,450.049 257.721,475.538 		"/>
		<polygon clip-path="url(#SVGID_2_)" class="inactive-municipality" points="98.417,766.751 92.044,769.94 98.417,780.136 88.261,786.171 
			88.253,786.171 76.517,778.572 55.493,773.796 45.928,784.311 36.37,780.481 36.37,769.969 31.595,762.322 15.345,716.444 
			37.326,702.111 40.197,698.64 56.361,736.166 65.283,717.4 72.292,728.05 64.645,742.123 64.645,757.83 72.292,754.646 
			90.134,754.646 90.134,764.202 98.417,759.745 		"/>
		<polygon clip-path="url(#SVGID_2_)" class="inactive-municipality" stroke="#1D1D1B" stroke-width="3" stroke-miterlimit="10" points="
			98.417,766.751 92.044,769.94 98.417,780.136 88.261,786.171 88.253,786.171 76.517,778.572 55.493,773.796 45.928,784.311 
			36.37,780.481 36.37,769.969 31.595,762.322 15.345,716.444 37.326,702.111 40.197,698.64 56.361,736.166 65.283,717.4 
			72.292,728.05 64.645,742.123 64.645,757.83 72.292,754.646 90.134,754.646 90.134,764.202 98.417,759.745 		"/>
		<polygon clip-path="url(#SVGID_2_)" class="inactive-municipality" points="396.056,797.385 396.056,797.391 391.932,801.514 385.144,795.777 
			375.68,801.514 361.342,795.777 346.055,796.732 340.316,801.514 330.758,806.29 314.508,819.676 313.554,799.604 278.187,786.22 
			275.423,783.458 276.843,770.575 273.652,762.295 274.288,747.634 257.083,747.634 256.446,736.804 246.251,736.804 
			251.621,728.05 287.672,669.258 301.059,673.076 301.059,666.074 306.151,666.074 306.151,650.143 311.253,642.495 
			311.253,632.938 321.446,628.473 321.446,623.38 317.62,613.814 328.848,606.811 331.396,613.814 337.379,621.463 
			345.663,626.563 345.663,631.664 384.529,666.074 376.881,690.927 380.71,695.383 376.881,701.757 380.71,708.768 
			376.881,718.325 380.71,722.349 376.881,729.156 384.529,754.01 390.268,754.01 		"/>
		<polygon clip-path="url(#SVGID_2_)" class="inactive-municipality" stroke="#1D1D1B" stroke-width="3" stroke-miterlimit="10" points="
			396.056,797.385 396.056,797.391 391.932,801.514 385.144,795.777 375.68,801.514 361.342,795.777 346.055,796.732 
			340.316,801.514 330.758,806.29 314.508,819.676 313.554,799.604 278.187,786.22 275.423,783.458 276.843,770.575 
			273.652,762.295 274.288,747.634 257.083,747.634 256.446,736.804 246.251,736.804 251.621,728.05 287.672,669.258 
			301.059,673.076 301.059,666.074 306.151,666.074 306.151,650.143 311.253,642.495 311.253,632.938 321.446,628.473 
			321.446,623.38 317.62,613.814 328.848,606.811 331.396,613.814 337.379,621.463 345.663,626.563 345.663,631.664 
			384.529,666.074 376.881,690.927 380.71,695.383 376.881,701.757 380.71,708.768 376.881,718.325 380.71,722.349 376.881,729.156 
			384.529,754.01 390.268,754.01 		"/>
		<polygon clip-path="url(#SVGID_2_)" class="inactive-municipality" points="194.001,642.495 186.614,659.699 183.169,676.904 179.979,686.463 
			171.058,679.451 171.058,687.735 164.692,689.009 160.755,683.917 155.127,695.383 144.295,690.282 132.828,690.282 
			127.729,686.463 132.828,675.632 128.365,675.632 107.976,678.814 102.238,692.838 102.238,704.939 85.033,711.952 
			78.022,708.768 72.292,728.05 65.283,717.4 56.361,736.166 40.197,698.64 55.493,680.125 25.858,654.326 25.858,644.76 
			15.345,632.338 56.448,600.799 76.517,570.208 109.01,570.208 123.35,583.009 138.175,570.542 144.295,575.584 141.236,583.009 
			138.175,587.69 132.828,592.153 138.559,599.165 138.559,613.814 144.295,597.891 164.048,603.622 164.048,606.811 
			171.058,618.279 171.058,627.838 177.433,632.938 186.614,629.747 186.614,639.948 		"/>
		<polygon clip-path="url(#SVGID_2_)" class="inactive-municipality" stroke="#1D1D1B" stroke-width="3" stroke-miterlimit="10" points="
			194.001,642.495 186.614,659.699 183.169,676.904 179.979,686.463 171.058,679.451 171.058,687.735 164.692,689.009 
			160.755,683.917 155.127,695.383 144.295,690.282 132.828,690.282 127.729,686.463 132.828,675.632 128.365,675.632 
			107.976,678.814 102.238,692.838 102.238,704.939 85.033,711.952 78.022,708.768 72.292,728.05 65.283,717.4 56.361,736.166 
			40.197,698.64 55.493,680.125 25.858,654.326 25.858,644.76 15.345,632.338 56.448,600.799 76.517,570.208 109.01,570.208 
			123.35,583.009 138.175,570.542 144.295,575.584 141.236,583.009 138.175,587.69 132.828,592.153 138.559,599.165 
			138.559,613.814 144.295,597.891 164.048,603.622 164.048,606.811 171.058,618.279 171.058,627.838 177.433,632.938 
			186.614,629.747 186.614,639.948 		"/>
		<polygon clip-path="url(#SVGID_2_)" class="inactive-municipality" points="276.843,770.575 275.423,783.458 269.585,777.619 237.092,788.129 
			223.945,797.787 223.945,780.771 207.386,780.771 207.386,773.761 199.101,768.03 199.101,761.02 183.169,761.02 183.169,751.464 
			165.965,756.555 160.755,752.1 165.965,745.726 160.755,736.166 167.238,731.731 163.41,725.338 170.372,715.771 164.692,711.314 
			160.755,705.896 179.979,698.64 179.979,686.463 183.169,676.904 203.558,680.725 203.558,698.64 212.479,698.64 212.479,706.852 
			225.227,701.757 241.16,703.032 237.331,717.689 251.621,728.05 246.251,736.804 256.446,736.804 257.083,747.634 
			274.288,747.634 273.652,762.295 		"/>
		<polygon clip-path="url(#SVGID_2_)" class="inactive-municipality" stroke="#1D1D1B" stroke-width="3" stroke-miterlimit="10" points="
			276.843,770.575 275.423,783.458 269.585,777.619 237.092,788.129 223.945,797.787 223.945,780.771 207.386,780.771 
			207.386,773.761 199.101,768.03 199.101,761.02 183.169,761.02 183.169,751.464 165.965,756.555 160.755,752.1 165.965,745.726 
			160.755,736.166 167.238,731.731 163.41,725.338 170.372,715.771 164.692,711.314 160.755,705.896 179.979,698.64 
			179.979,686.463 183.169,676.904 203.558,680.725 203.558,698.64 212.479,698.64 212.479,706.852 225.227,701.757 241.16,703.032 
			237.331,717.689 251.621,728.05 246.251,736.804 256.446,736.804 257.083,747.634 274.288,747.634 273.652,762.295 		"/>
		<polygon clip-path="url(#SVGID_2_)" class="inactive-municipality" points="509.84,638.074 498.281,659.099 494.199,802.471 485.85,810.118 
			469.918,805.334 455.583,802.471 441.628,810.118 418.694,802.471 398.615,794.822 396.056,797.385 390.268,754.01 
			384.529,754.01 376.881,729.156 380.71,722.349 376.881,718.325 380.71,708.768 376.881,701.757 380.71,695.383 376.881,690.927 
			384.529,666.074 388.992,659.699 392.813,653.326 436.779,627.838 442.518,613.814 468.008,606.811 471.024,606.811 
			469.918,609.401 485.85,609.401 485.85,618.961 498.281,631.382 		"/>
		<polygon clip-path="url(#SVGID_2_)" class="inactive-municipality" stroke="#1D1D1B" stroke-width="3" stroke-miterlimit="10" points="
			509.84,638.074 498.281,659.099 494.199,802.471 485.85,810.118 469.918,805.334 455.583,802.471 441.628,810.118 
			418.694,802.471 398.615,794.822 396.056,797.385 390.268,754.01 384.529,754.01 376.881,729.156 380.71,722.349 376.881,718.325 
			380.71,708.768 376.881,701.757 380.71,695.383 376.881,690.927 384.529,666.074 388.992,659.699 392.813,653.326 
			436.779,627.838 442.518,613.814 468.008,606.811 471.024,606.811 469.918,609.401 485.85,609.401 485.85,618.961 
			498.281,631.382 		"/>
	</g>
</g>

<text font-size="24" font-family="Arial" >
	<tspan x="10" y="300" id="display-text"></tspan>
</text>

 <script type="text/javascript" xlink:href="drenthe.js" xlink:actuate="onLoad" xlink:show="other" xlink:type="simple" />
</svg>
